# File created by Blade
# Date/Time:  Wed Sep 24 20:21:23 2014
# Frame Rate: 120.000 fps
#------------------------------------------------------
:FULLY-SPECIFIED
:DEGREES
295
root -8.821069 32.157260 -7.437118 7.183185 9.285785 21.237106
Spine 35.301004 -10.895700 -25.153554
Head -53.099770 4.991616 5.151690
LeftShoulder 19.406078 -4.634484 6.960183
LeftArm 35.428305 -16.807411 -69.866167
LeftForeArm -80.666131 -0.000000 2.484907
LeftHand -15.096225 -0.000000 -31.693832
LeftHandThumb1 -26.253704 0.000000 33.147579
RightShoulder -16.935975 19.596561 -25.467001
RightArm -5.870433 -23.342620 77.489388
RightForeArm -28.363895 -0.000000 30.942503
RightHand -6.412025 -0.000000 -0.659833
RightHandThumb1 -24.326973 -0.000000 -32.862282
LeftUpLeg -129.303362 11.950608 -37.936140
LeftLeg 111.544266 -0.000000 -0.000000
LeftFoot 34.695851 17.737462 -21.279516
LeftToeBase -3.385721 -0.000000 0.000000
RightUpLeg -23.903771 -7.404189 -12.329908
RightLeg 40.209210 -0.000000 -0.000000
RightFoot -23.168598 -14.811947 -2.860063
RightToeBase 2.481045 -0.000000 -0.000000
296
root -8.824724 32.161099 -7.422391 7.125130 9.274614 21.269880
Spine 35.392865 -10.922774 -25.185099
Head -53.202828 5.111927 5.063717
LeftShoulder 19.416152 -4.645975 6.927514
LeftArm 35.335447 -16.951057 -69.543736
LeftForeArm -80.432924 -0.000000 2.489340
LeftHand -15.136439 -0.000000 -31.935819
LeftHandThumb1 -26.253704 0.000000 33.147579
RightShoulder -16.976706 19.659078 -25.575479
RightArm -5.823159 -23.255584 77.754479
RightForeArm -28.292410 0.000000 30.983027
RightHand -6.307854 -0.000000 -0.629433
RightHandThumb1 -24.326973 -0.000000 -32.862282
LeftUpLeg -129.340623 12.050921 -37.916394
LeftLeg 111.471483 -0.000000 -0.000000
LeftFoot 34.514681 17.867407 -21.154749
LeftToeBase -2.558976 -0.000000 0.000000
RightUpLeg -23.866193 -7.509624 -12.369301
RightLeg 40.317698 -0.000000 -0.000000
RightFoot -23.313341 -14.565691 -2.560310
RightToeBase 2.619648 -0.000000 -0.000000
297
root -8.828441 32.166994 -7.409927 7.071936 9.259201 21.314621
Spine 35.485701 -10.921433 -25.230497
Head -53.315087 5.206752 5.024127
LeftShoulder 19.435719 -4.662752 6.907026
LeftArm 35.233143 -17.060554 -69.198099
LeftForeArm -80.158712 -0.000000 2.532328
LeftHand -15.155860 -0.000000 -31.789846
LeftHandThumb1 -26.253704 0.000000 33.147579
RightShoulder -17.030971 19.742453 -25.692045
RightArm -5.832576 -23.145892 78.055193
RightForeArm -28.279679 0.000000 31.087474
RightHand -6.461893 -0.000000 -0.738771
RightHandThumb1 -24.326973 -0.000000 -32.862282
LeftUpLeg -129.370219 12.148754 -37.902141
LeftLeg 111.367992 -0.000000 -0.000000
LeftFoot 34.458210 17.790313 -20.524481
LeftToeBase -2.253886 -0.000000 0.000000
RightUpLeg -23.826069 -7.517685 -12.430468
RightLeg 40.406053 -0.000000 -0.000000
RightFoot -23.439270 -14.422721 -2.250887
RightToeBase 2.794665 -0.000000 -0.000000
298
root -8.829252 32.173377 -7.399835 7.043407 9.227899 21.380844
Spine 35.535807 -10.911583 -25.281769
Head -53.386859 5.337475 4.998175
LeftShoulder 19.435550 -4.661283 6.894368
LeftArm 35.144744 -17.115306 -68.819622
LeftForeArm -79.669797 -0.000000 2.470641
LeftHand -15.144511 0.000000 -32.105079
LeftHandThumb1 -26.253704 0.000000 33.147579
RightShoulder -17.077480 19.805399 -25.825996
RightArm -5.838599 -23.023933 78.387829
RightForeArm -28.330111 -0.000000 31.153051
RightHand -6.448397 -0.000000 -0.779897
RightHandThumb1 -24.326973 -0.000000 -32.862282
LeftUpLeg -129.398801 12.248822 -37.887505
LeftLeg 111.261260 -0.000000 -0.000000
LeftFoot 34.375173 17.881712 -20.376098
LeftToeBase -2.630878 -0.000000 0.000000
RightUpLeg -23.816089 -7.406151 -12.524340
RightLeg 40.521771 -0.000000 -0.000000
RightFoot -23.624120 -14.365363 -1.740764
RightToeBase 3.031010 -0.000000 -0.000000
299
root -8.829814 32.181418 -7.390277 7.028287 9.202234 21.461228
Spine 35.578866 -10.897161 -25.343217
Head -53.457985 5.486934 5.002983
LeftShoulder 19.384165 -4.649177 6.907634
LeftArm 35.129684 -17.405522 -68.703166
LeftForeArm -79.460148 -0.000000 2.605845
LeftHand -15.572695 0.000000 -31.616378
LeftHandThumb1 -26.253704 0.000000 33.147579
RightShoulder -17.128300 19.910220 -25.963920
RightArm -5.912976 -22.905586 78.751441
RightForeArm -28.412927 -0.000000 31.245840
RightHand -6.435255 -0.000000 -0.916895
RightHandThumb1 -24.326973 -0.000000 -32.862282
LeftUpLeg -129.432124 12.330423 -37.880758
LeftLeg 111.150194 -0.000000 -0.000000
LeftFoot 34.282524 17.798603 -19.769924
LeftToeBase -2.576968 -0.000000 0.000000
RightUpLeg -23.809376 -7.372857 -12.629373
RightLeg 40.604678 -0.000000 -0.000000
RightFoot -23.740048 -14.267362 -1.387973
RightToeBase 3.140537 -0.000000 -0.000000
300
root -8.831900 32.188177 -7.379102 7.009351 9.161649 21.514937
Spine 35.596786 -10.860103 -25.358852
Head -53.493672 5.629152 4.936101
LeftShoulder 19.351048 -4.639660 6.871372
LeftArm 35.070647 -17.544375 -68.424465
LeftForeArm -78.764942 -0.000000 2.582335
LeftHand -15.637957 -0.000000 -31.721430
LeftHandThumb1 -26.253704 0.000000 33.147579
RightShoulder -17.176670 19.968241 -26.097545
RightArm -5.957697 -22.841171 79.095461
RightForeArm -28.439039 0.000000 31.372165
RightHand -6.404006 -0.000000 -1.043063
RightHandThumb1 -24.326973 -0.000000 -32.862282
LeftUpLeg -129.477996 12.433601 -37.856821
LeftLeg 111.042597 -0.000000 -0.000000
LeftFoot 34.152123 17.831494 -19.680834
LeftToeBase -2.360624 -0.000000 0.000000
RightUpLeg -23.795142 -7.439931 -12.689104
RightLeg 40.660092 -0.000000 -0.000000
RightFoot -23.913547 -14.001488 -0.995628
RightToeBase 3.350967 -0.000000 -0.000000
301
root -8.833407 32.194770 -7.366044 6.986254 9.137404 21.556745
Spine 35.617925 -10.832243 -25.351865
Head -53.558466 5.792155 4.888862
LeftShoulder 19.314112 -4.652646 6.845955
LeftArm 34.984537 -17.626437 -68.158311
LeftForeArm -78.333848 0.000000 2.542675
LeftHand -15.947919 -0.000000 -31.976768
LeftHandThumb1 -26.253704 0.000000 33.147579
RightShoulder -17.237399 19.992234 -26.226603
RightArm -5.947178 -22.818039 79.428633
RightForeArm -28.490056 -0.000000 31.485044
RightHand -6.588123 -0.000000 -1.018417
RightHandThumb1 -24.326973 -0.000000 -32.862282
LeftUpLeg -129.526106 12.546776 -37.769902
LeftLeg 110.915609 -0.000000 -0.000000
LeftFoot 34.386593 17.836027 -19.549850
LeftToeBase -2.929515 -0.000000 0.000000
RightUpLeg -23.762461 -7.693398 -12.729153
RightLeg 40.692111 -0.000000 -0.000000
RightFoot -24.054165 -13.634975 -0.802359
RightToeBase 3.502029 -0.000000 -0.000000
302
root -8.833767 32.201336 -7.353849 6.981825 9.123199 21.621277
Spine 35.613289 -10.794467 -25.379814
Head -53.570948 5.958748 4.953338
LeftShoulder 19.288705 -4.641570 6.823449
LeftArm 34.853982 -17.485819 -67.709281
LeftForeArm -78.499986 -0.000000 2.528052
LeftHand -16.263511 -0.000000 -31.922128
LeftHandThumb1 -26.253704 0.000000 33.147579
RightShoulder -17.268509 20.009185 -26.292244
RightArm -5.945507 -22.774481 79.718293
RightForeArm -28.601100 0.000000 31.578533
RightHand -6.601053 -0.000000 -1.068411
RightHandThumb1 -24.326973 -0.000000 -32.862282
LeftUpLeg -129.557802 12.618495 -37.716446
LeftLeg 110.817420 -0.000000 -0.000000
LeftFoot 34.270112 17.833949 -19.377235
LeftToeBase -2.531064 -0.000000 0.000000
RightUpLeg -23.764060 -7.725429 -12.808229
RightLeg 40.783196 -0.000000 -0.000000
RightFoot -24.202257 -13.444052 -0.390194
RightToeBase 3.684027 -0.000000 -0.000000
303
root -8.832842 32.210880 -7.342936 6.982672 9.109940 21.714306
Spine 35.615012 -10.755686 -25.441892
Head -53.588903 6.093893 5.054050
LeftShoulder 19.225992 -4.602926 6.857753
LeftArm 34.875122 -17.758871 -67.695480
LeftForeArm -78.518267 -0.000000 2.533985
LeftHand -16.583381 -0.000000 -31.884314
LeftHandThumb1 -26.253704 0.000000 33.147579
RightShoulder -17.297251 20.027263 -26.337386
RightArm -5.929525 -22.755338 80.013538
RightForeArm -28.647026 -0.000000 31.661090
RightHand -6.656638 -0.000000 -1.151780
RightHandThumb1 -24.326973 -0.000000 -32.862282
LeftUpLeg -129.587458 12.697083 -37.687063
LeftLeg 110.694339 -0.000000 -0.000000
LeftFoot 34.448365 17.859995 -19.228919
LeftToeBase -2.614356 -0.000000 0.000000
RightUpLeg -23.748098 -7.800513 -12.917365
RightLeg 40.832277 -0.000000 -0.000000
RightFoot -24.320847 -13.273226 -0.097526
RightToeBase 3.751739 -0.000000 -0.000000
304
root -8.830556 32.220415 -7.332532 6.975720 9.114591 21.803118
Spine 35.638397 -10.712124 -25.494052
Head -53.631873 6.219946 5.195825
LeftShoulder 19.194539 -4.583004 6.914085
LeftArm 34.909409 -18.153747 -67.795173
LeftForeArm -79.054354 -0.000000 2.608986
LeftHand -16.943332 -0.000000 -31.437488
LeftHandThumb1 -26.253704 0.000000 33.147579
RightShoulder -17.316143 20.066895 -26.372360
RightArm -5.929883 -22.727204 80.304176
RightForeArm -28.745576 0.000000 31.744703
RightHand -6.784376 -0.000000 -1.224796
RightHandThumb1 -24.326973 -0.000000 -32.862282
LeftUpLeg -129.588620 12.763051 -37.644596
LeftLeg 110.567009 -0.000000 -0.000000
LeftFoot 34.614273 17.829932 -19.029741
LeftToeBase -2.982591 -0.000000 0.000000
RightUpLeg -23.732501 -7.837250 -13.034465
RightLeg 40.900322 -0.000000 -0.000000
RightFoot -24.467934 -13.088304 0.322281
RightToeBase 3.967148 -0.000000 -0.000000
305
root -8.826608 32.230141 -7.319812 6.949025 9.140970 21.913490
Spine 35.690073 -10.651784 -25.565496
Head -53.683906 6.322964 5.363501
LeftShoulder 19.185611 -4.560781 6.980199
LeftArm 34.930709 -18.390332 -67.775498
LeftForeArm -79.216947 -0.000000 2.576869
LeftHand -17.165506 -0.000000 -31.659256
LeftHandThumb1 -26.253704 0.000000 33.147579
RightShoulder -17.340260 20.116628 -26.421058
RightArm -5.981487 -22.717814 80.618836
RightForeArm -28.803486 -0.000000 31.839622
RightHand -6.852007 -0.000000 -1.347780
RightHandThumb1 -24.326973 -0.000000 -32.862282
LeftUpLeg -129.564014 12.831950 -37.611788
LeftLeg 110.453670 -0.000000 -0.000000
LeftFoot 34.867500 17.814625 -18.933342
LeftToeBase -3.380892 -0.000000 0.000000
RightUpLeg -23.679978 -8.093283 -13.158411
RightLeg 40.962333 -0.000000 -0.000000
RightFoot -24.561388 -12.757983 0.486943
RightToeBase 4.053023 -0.000000 -0.000000
306
root -8.821816 32.242223 -7.313022 6.952829 9.158425 22.025467
Spine 35.732905 -10.589055 -25.622325
Head -53.796581 6.402052 5.513217
LeftShoulder 19.197194 -4.535970 7.053815
LeftArm 35.026073 -18.844200 -67.932944
LeftForeArm -78.826638 -0.000000 2.635355
LeftHand -17.125479 0.000000 -31.803590
LeftHandThumb1 -26.253704 0.000000 33.147579
RightShoulder -17.377317 20.181880 -26.485629
RightArm -6.033007 -22.760058 80.921013
RightForeArm -28.701881 -0.000000 31.979263
RightHand -7.074018 -0.000000 -1.298033
RightHandThumb1 -24.326973 -0.000000 -32.862282
LeftUpLeg -129.550182 12.871712 -37.591415
LeftLeg 110.343467 -0.000000 -0.000000
LeftFoot 34.854954 17.838919 -18.903992
LeftToeBase -3.015849 -0.000000 0.000000
RightUpLeg -23.647026 -8.171586 -13.293985
RightLeg 40.981733 -0.000000 -0.000000
RightFoot -24.598330 -12.604635 0.663966
RightToeBase 4.131214 -0.000000 -0.000000
